<svg xmlns="http://www.w3.org/2000/svg" viewBox="0 0 60.006 60.004"><path d="M0 60.004v-43.29l10.447-16.714h39.112l10.447 16.714v43.29h-60.006zm29.003-58.004h-17.448l-8.75 14.001h26.198v-14.001zm19.447 0h-17.447v14.001h26.198l-8.751-14.001zm9.555 16.001h-56.004v40.003h56.004v-40.003zm-33.71 21.296c.093-.093.203-.166.325-.217.245-.101.521-.101.765 0 .123.051.234.124.326.217l2.999 2.999c.391.391.391 1.023 0 1.414-.195.195-.451.293-.707.293s-.512-.098-.707-.293l-1.293-1.293v6.587c0 .553-.448 1-1 1s-1.001-.447-1.001-1v-6.587l-1.293 1.293c-.195.195-.451.293-.707.293s-.512-.098-.707-.293c-.391-.391-.391-1.023 0-1.414l3-2.999zm-2.293 12.707h16.002c.552 0 1 .447 1 1s-.448 1-1 1h-16.002c-.552 0-1-.447-1-1s.448-1 1-1zm16.002-8.001c-.256 0-.512-.098-.707-.293l-1.294-1.293v6.587c0 .553-.448 1-1 1s-1-.447-1-1v-6.587l-1.293 1.293c-.195.195-.451.293-.707.293s-.512-.098-.707-.293c-.391-.391-.391-1.023 0-1.414l2.999-2.999c.093-.093.203-.166.326-.217.244-.101.52-.101.764 0 .124.051.234.124.327.217l2.999 2.999c.391.391.391 1.023 0 1.414-.195.195-.451.293-.707.293zm-2.001-15.001h-12.001c-1.654 0-3-1.346-3-3s1.346-3.001 3-3.001h12.001c1.655 0 3.001 1.347 3.001 3.001s-1.346 3-3.001 3zm0-4h-12.001c-.551 0-1 .448-1 1s.449 1 1 1h12.001c.552 0 1.001-.448 1.001-1s-.449-1-1.001-1z"/></svg>