<svg xmlns="http://www.w3.org/2000/svg" viewBox="0 0 69.996 68.845"><path d="M66.496 9.105v56.264l-3.5-3.477-6.999 6.953-7-6.953-6.999 6.953-7-6.953-7 6.953-6.999-6.953-7 6.953-6.999-6.953-3.5 3.477v-56.264c-2.007-.518-3.5-2.316-3.5-4.47 0-2.556 2.093-4.635 4.667-4.635h60.663c2.573 0 4.666 2.079 4.666 4.635 0 2.154-1.493 3.952-3.5 4.47zm-60.663.165v50.504l1.167-1.158 6.999 6.952 7-6.952 6.999 6.952 7-6.952 7 6.952 6.999-6.952 7 6.952 6.999-6.952 1.167 1.158v-53.98h-58.33v3.476zm59.497-6.953h-60.663c-1.287 0-2.334 1.04-2.334 2.318 0 .856.471 1.606 1.167 2.006v-3.165h62.996v3.165c.697-.4 1.167-1.15 1.167-2.006 0-1.278-1.047-2.318-2.333-2.318zm-4.667 11.588c-.644 0-1.166-.519-1.166-1.159s.522-1.159 1.166-1.159 1.167.519 1.167 1.159-.523 1.159-1.167 1.159zm-2.319 34.671c-.415.212-.981.341-1.548.341s-1.133-.129-1.548-.341c-.392-.223-.632-.528-.632-.833 0-.318.24-.612.632-.833.829-.435 2.267-.435 3.096 0 .392.221.632.515.632.833 0 .305-.24.61-.632.833zm-1.548-7.875h-21.799c-1.203 0-2.18-.525-2.18-1.174s.977-1.173 2.18-1.173h21.799c1.203 0 2.18.524 2.18 1.173s-.977 1.174-2.18 1.174zm0-8.216h-32.699c-1.203 0-2.18-.524-2.18-1.173 0-.65.977-1.174 2.18-1.174h32.699c1.203 0 2.18.524 2.18 1.174 0 .649-.977 1.173-2.18 1.173zm1.548-8.556c-.415.211-.959.341-1.548.341-.567 0-1.133-.13-1.548-.341-.392-.223-.632-.528-.632-.833 0-.318.24-.612.632-.834.807-.434 2.289-.434 3.096 0 .392.222.632.529.632.834s-.24.61-.632.833zm-2.347-10.024c-.645 0-1.167-.519-1.167-1.159s.522-1.159 1.167-1.159c.644 0 1.166.519 1.166 1.159s-.522 1.159-1.166 1.159zm-4.667 0c-.644 0-1.166-.519-1.166-1.159s.522-1.159 1.166-1.159c.645 0 1.167.519 1.167 1.159s-.522 1.159-1.167 1.159zm-5.434 10.365h-32.698c-1.204 0-2.18-.525-2.18-1.174s.976-1.174 2.18-1.174h32.698c1.204 0 2.18.525 2.18 1.174s-.976 1.174-2.18 1.174zm.768-10.365c-.644 0-1.167-.519-1.167-1.159s.523-1.159 1.167-1.159 1.167.519 1.167 1.159-.523 1.159-1.167 1.159zm-4.666 0c-.645 0-1.167-.519-1.167-1.159s.522-1.159 1.167-1.159c.644 0 1.166.519 1.166 1.159s-.522 1.159-1.166 1.159zm-4.667 0c-.644 0-1.166-.519-1.166-1.159s.522-1.159 1.166-1.159 1.167.519 1.167 1.159-.523 1.159-1.167 1.159zm-4.666 0c-.645 0-1.167-.519-1.167-1.159s.522-1.159 1.167-1.159c.644 0 1.166.519 1.166 1.159s-.522 1.159-1.166 1.159zm-4.667 0c-.644 0-1.166-.519-1.166-1.159s.522-1.159 1.166-1.159c.645 0 1.167.519 1.167 1.159s-.522 1.159-1.167 1.159zm-4.666 0c-.644 0-1.167-.519-1.167-1.159s.523-1.159 1.167-1.159 1.167.519 1.167 1.159-.523 1.159-1.167 1.159zm-4.666 0c-.645 0-1.167-.519-1.167-1.159s.522-1.159 1.167-1.159c.644 0 1.166.519 1.166 1.159s-.522 1.159-1.166 1.159zm-4.667 0c-.644 0-1.166-.519-1.166-1.159s.522-1.159 1.166-1.159c.645 0 1.167.519 1.167 1.159s-.522 1.159-1.167 1.159zm-4.666 0c-.644 0-1.167-.519-1.167-1.159s.523-1.159 1.167-1.159 1.167.519 1.167 1.159-.523 1.159-1.167 1.159zm6.044 18.58c-.566 0-1.133-.129-1.547-.34-.393-.223-.632-.517-.632-.833 0-.319.239-.612.632-.834.828-.434 2.289-.434 3.095 0 .393.222.633.515.633.834 0 .316-.24.61-.633.833-.414.211-.981.34-1.548.34zm-2.179 5.869h4.36c1.203 0 2.179.524 2.179 1.173s-.976 1.174-2.179 1.174h-4.36c-1.204 0-2.18-.525-2.18-1.174s.976-1.173 2.18-1.173zm13.079 2.347c-.567 0-1.133-.129-1.547-.341-.393-.222-.633-.528-.633-.833s.24-.611.633-.833c.828-.434 2.288-.434 3.095 0 .392.211.632.515.632.833 0 .317-.24.611-.632.833-.414.212-.981.341-1.548.341zm-13.079 5.868h32.698c1.204 0 2.18.525 2.18 1.174s-.976 1.174-2.18 1.174h-32.698c-1.204 0-2.18-.525-2.18-1.174s.976-1.174 2.18-1.174z"/></svg>