<svg xmlns="http://www.w3.org/2000/svg" viewBox="0 0 80.005 83.404"><path d="M77.949 56.69c-.428.435-.925.741-1.43 1.033v23.944c0 .959-.779 1.737-1.739 1.737h-69.557c-.96 0-1.739-.778-1.739-1.734v-23.909c-.508-.295-.995-.629-1.426-1.07-1.44-1.47-2.128-3.604-2.052-6.346.028-6.798 3.666-11.124 6.587-14.603 1.927-2.294 3.589-4.271 3.864-6.422.111-.865.852-1.519 1.722-1.519.876 0 1.613.654 1.728 1.519.275 2.148 1.941 4.128 3.864 6.415 2.921 3.479 6.559 7.809 6.587 14.651.076 2.697-.612 4.834-2.052 6.301-.428.438-.929.744-1.433 1.035v22.207h10.434v-8.688c0-4.792 3.902-8.688 8.694-8.688 4.793 0 8.695 3.896 8.695 8.688v8.688h10.434v-22.168c-.508-.296-.999-.633-1.43-1.074-1.44-1.47-2.128-3.604-2.052-6.346.028-6.797 3.662-11.127 6.587-14.606 1.923-2.29 3.586-4.271 3.864-6.419.115-.865.852-1.515 1.725-1.515.869 0 1.61.653 1.725 1.519.278 2.147 1.941 4.128 3.864 6.418 2.918 3.476 6.555 7.809 6.587 14.652.076 2.697-.612 4.834-2.051 6.3zm-70.988 23.239h10.43v-21.073c-1.13.159-2.274.232-3.366.232l-.971-.007-.876-.003-.873.003c-1.363.014-2.876.014-4.344-.194v21.042zm4.083-44.184c-.57.741-1.168 1.477-1.791 2.221-2.827 3.367-5.749 6.846-5.773 12.427-.052 1.807.302 3.09 1.057 3.854.807.824 2.136 1.133 3.589 1.262-2.427-7.983-.403-11.659 1.301-14.627.981-1.71 1.746-3.069 1.617-5.137zm9.836 14.697c-.021-5.626-2.946-9.108-5.774-12.472l-.615-.751c-.23 2.224-1.176 3.871-2.045 5.39-1.656 2.881-3.168 5.668-.64 12.994h.372l.908.007c2.511.031 5.363.048 6.736-1.356.755-.768 1.11-2.05 1.058-3.812zm24.338 20.799c0-2.874-2.341-5.213-5.217-5.213s-5.217 2.339-5.217 5.213v8.688h10.434v-8.688zm17.389 8.688h10.434v-21.073c-1.131.159-2.278.232-3.37.232l-.971-.007-.876-.003-.877.003c-1.366.014-2.872.014-4.34-.194v21.042zm4.083-44.184c-.57.741-1.169 1.481-1.795 2.225-2.827 3.364-5.749 6.846-5.773 12.427-.052 1.803.303 3.089 1.057 3.854.804.824 2.136 1.133 3.593 1.261-2.427-7.982-.403-11.659 1.301-14.627.981-1.709 1.746-3.072 1.617-5.14zm4.059 2.221l-.613-.744c-.229 2.221-1.175 3.868-2.045 5.387-1.655 2.881-3.168 5.668-.639 12.994h.372l.904.007c2.515.034 5.359.048 6.733-1.356.758-.768 1.113-2.054 1.061-3.816-.021-5.626-2.946-9.108-5.773-12.472zm-1.186 29.8v3.475c0 .959-.779 1.738-1.739 1.738s-1.739-.779-1.739-1.738v-3.475c0-.959.779-1.738 1.739-1.738s1.739.779 1.739 1.738zm-55.646 0v3.475c0 .959-.779 1.738-1.739 1.738s-1.739-.779-1.739-1.738v-3.475c0-.959.779-1.738 1.739-1.738s1.739.779 1.739 1.738zm34.779-24.326v3.475c0 .959-.779 1.737-1.739 1.737s-1.739-.778-1.739-1.737v-3.475c0-.96.779-1.738 1.739-1.738s1.739.778 1.739 1.738zm-13.912 0v3.475c0 .959-.779 1.737-1.739 1.737s-1.739-.778-1.739-1.737v-3.475c0-.96.779-1.738 1.739-1.738s1.739.778 1.739 1.738zm20.871-10.808v10.808c0 .959-.779 1.737-1.739 1.737s-1.739-.778-1.739-1.737v-9.429l-.292.053c-.671.149-1.36.274-2.076.364l-.213.035c-.278.171-.58.289-.9.289-.167 0-.313-.111-.473-.16-.428.035-.852.069-1.287.09l-.073.004c-.838.038-1.68.059-2.525.066l-.508.003-.695.007-1.656-.007h-.014l-1.464-.003-1.464.003h-.017c-1.214.01-2.456.014-3.697-.01l-.039.007-.027-.007c-.533-.011-1.058-.032-1.583-.056l-.184-.01c-.838-.042-1.659-.112-2.463-.205l-.219-.025c-.855-.108-1.69-.243-2.48-.434v9.425c0 .959-.779 1.737-1.739 1.737-.959 0-1.739-.778-1.739-1.737v-10.801c-.591-.358-1.137-.758-1.606-1.245-1.346-1.403-1.976-3.224-1.871-5.414.045-6.968 5.87-12.323 11.011-17.046 3.067-2.825 5.968-5.487 6.416-7.562.174-.799.877-1.372 1.701-1.372s1.53.57 1.708 1.369c.448 2.075 3.345 4.737 6.416 7.562 5.141 4.726 10.966 10.081 11.015 17.119.104 2.116-.525 3.937-1.875 5.341-.466.487-1.019.883-1.61 1.241zm-21.413-21.14c-4.619 4.247-9.853 9.06-9.892 14.589-.062 1.296.227 2.2.912 2.912.438.459 1.057.803 1.752 1.098.672.282 1.416.515 2.244.681l.052.007c.807.16 1.683.258 2.584.334l.428.038c-2.685-8.681.629-13.396 3.398-17.205 1.735-2.388 3.046-4.23 2.879-6.69-1.245 1.366-2.747 2.756-4.357 4.236zm7.536 7.357c.084-2.537.139-4.99-.469-7.388-.693 1.637-1.732 3.096-2.776 4.524-2.782 3.827-5.356 7.5-2.514 15.291.817.007 1.638.007 2.431.004h.055l1.496-.004 1.492.004c.859.003 1.749.003 2.636-.004h.428c-2.995-4.017-2.904-8.427-2.779-12.427zm3.982-7.357l-1.127-1.043c.772 2.94.706 5.832.623 8.511-.153 4.751-.223 8.556 3.77 12.035.574-.066 1.172-.115 1.701-.219.838-.167 1.592-.4 2.271-.688.692-.296 1.307-.64 1.746-1.095.678-.709.966-1.612.907-2.839-.038-5.595-5.272-10.412-9.891-14.662z"/></svg>