<svg xmlns="http://www.w3.org/2000/svg" viewBox="0 0 70.002 51.334"><path d="M65.082 51.334h-60.162c-2.712 0-4.92-2.207-4.92-4.92v-41.494c0-2.713 2.208-4.92 4.92-4.92h60.162c2.712 0 4.92 2.207 4.92 4.92v41.494c0 2.713-2.208 4.92-4.92 4.92zm2.587-46.414c0-1.426-1.16-2.587-2.587-2.587h-60.162c-1.427 0-2.586 1.161-2.586 2.587v41.494c0 1.426 1.159 2.587 2.586 2.587h60.162c1.427 0 2.587-1.161 2.587-2.587v-41.494zm-16.334 28.914h12.833v9.333h-12.833v-9.333zm2.333 7h8.167v-4.667h-8.167v4.667zm2.334-17.5c-1.489 0-2.881-.408-4.084-1.105-1.203.697-2.595 1.105-4.083 1.105-4.503 0-8.167-3.664-8.167-8.167 0-4.504 3.664-8.167 8.167-8.167 1.488 0 2.88.407 4.083 1.105 1.203-.698 2.595-1.105 4.084-1.105 4.502 0 8.166 3.663 8.166 8.167 0 4.503-3.664 8.167-8.166 8.167zm-6.082-13.598c-.65-.251-1.349-.403-2.085-.403-3.217 0-5.834 2.617-5.834 5.834 0 3.216 2.617 5.833 5.834 5.833.736 0 1.435-.151 2.085-.402-1.292-1.445-2.085-3.345-2.085-5.431s.793-3.987 2.085-5.431zm1.998 1.275c-1.078 1.059-1.75 2.529-1.75 4.156 0 1.626.672 3.096 1.75 4.156 1.078-1.06 1.75-2.53 1.75-4.156 0-1.627-.672-3.097-1.75-4.156zm4.084-1.678c-.737 0-1.435.152-2.085.403 1.291 1.444 2.085 3.345 2.085 5.431s-.794 3.986-2.085 5.431c.65.251 1.348.402 2.085.402 3.216 0 5.833-2.617 5.833-5.833 0-3.217-2.617-5.834-5.833-5.834zm-7.001 33.834h-12.833v-9.333h12.833v9.333zm-2.333-7h-8.167v4.667h8.167v-4.667zm-25.667-2.333h12.833v9.333h-12.833v-9.333zm2.333 7h8.167v-4.667h-8.167v4.667zm9.334-23.334c-.304 0-.608-.128-.829-.338-.211-.222-.338-.514-.338-.829s.127-.606.35-.828c.42-.432 1.213-.432 1.645.012.21.21.338.513.338.816 0 .304-.128.607-.338.829-.222.21-.525.338-.828.338zm-4.667-2.333c.645 0 1.166.522 1.166 1.166s-.521 1.167-1.166 1.167h-2.334c-.645 0-1.166-.523-1.166-1.167s.521-1.166 1.166-1.166h2.334zm4.667-3.5h-10.501c-.645 0-1.166-.523-1.166-1.167s.521-1.167 1.166-1.167h10.501c.645 0 1.166.523 1.166 1.167s-.521 1.167-1.166 1.167zm-10.501 4.666c0 .644-.521 1.167-1.166 1.167h-1.167c-.645 0-1.167-.523-1.167-1.167s.522-1.166 1.167-1.166h1.167c.645 0 1.166.522 1.166 1.166zm-4.666-4.666h-10.501c-.645 0-1.166-.523-1.166-1.167s.521-1.167 1.166-1.167h10.501c.645 0 1.166.523 1.166 1.167s-.521 1.167-1.166 1.167zm-10.501 3.5h1.167c.645 0 1.167.522 1.167 1.166s-.522 1.167-1.167 1.167h-1.167c-.645 0-1.166-.523-1.166-1.167s.521-1.166 1.166-1.166zm5.834 2.333c-.645 0-1.167-.523-1.167-1.167s.522-1.166 1.167-1.166h2.333c.645 0 1.167.522 1.167 1.166s-.522 1.167-1.167 1.167h-2.333zm5.833 25.667h-12.833v-9.333h12.833v9.333zm-2.333-7h-8.167v4.667h8.167v-4.667z"/></svg>