<svg xmlns="http://www.w3.org/2000/svg" viewBox="0 0 69.996 65.35"><path d="M68.829 23.339c-1.897 0-3.352 1.393-3.476 3.149 2.218 3.617 3.476 7.699 3.476 12.022 0 7.118-3.267 13.77-9.333 18.788v6.885c0 .7-.466 1.167-1.166 1.167h-7c-.7 0-1.166-.467-1.166-1.167v-1.4c-8.75 3.384-19.249 3.384-27.999 0v1.4c0 .7-.466 1.167-1.166 1.167h-7c-.7 0-1.166-.467-1.166-1.167v-6.885c-3.967-3.267-6.766-7.352-8.166-11.786h-3.5c-.7 0-1.167-.467-1.167-1.167v-11.67c0-.7.467-1.167 1.167-1.167h3.5c2.674-8.106 9.687-14.515 18.684-17.678-.016-.351-.019-.689-.019-.993 0-7.119 5.716-12.837 12.833-12.837 7.116 0 12.832 5.718 12.832 12.837 0 .307-.003.648-.02 1.002 6.042 2.132 11.163 5.711 14.687 10.219.961-1.839 2.881-3.053 5.165-3.053.7 0 1.167.467 1.167 1.167 0 .701-.467 1.167-1.167 1.167zm-32.548-21.005c-5.833 0-10.499 4.668-10.499 10.503l.004.229c.726-.2 1.466-.372 2.213-.531v-.282c0-.7.583-1.167 1.283-1.05.576 0 .922.455 1.043.916 1.901-.286 3.849-.449 5.84-.449 1.994 0 3.943.161 5.84.447.122-.46.468-.914 1.043-.914.583-.117 1.166.467 1.283 1.05v.278c.827.177 1.643.377 2.444.604l.005-.298c0-5.835-4.666-10.503-10.499-10.503zm-.116 11.67c-2.344 0-4.617.24-6.813.649-.043.036-.108.051-.187.051l-.041-.009c-1.259.242-2.498.525-3.694.887-.139.1-.293.172-.465.172h-.067c-9.027 2.898-15.977 9.196-18.248 17.271-.116.467-.583.817-1.166.817h-3.15v9.336h3.15c.466 0 .933.35 1.166.817 1.283 4.434 4.083 8.519 8.166 11.786.234.117.35.35.35.7v6.535h4.666v-1.984c0-.583.35-1.05.934-1.166.233 0 .466 0 .7.116 4.433 1.984 9.566 3.034 14.699 3.034s10.266-1.05 14.699-3.034c.35-.117.816-.117 1.166.117.35.233.584.583.584.933v1.984h4.549v-6.301c0-.35.117-.7.467-.934 5.716-4.668 8.866-10.736 8.866-17.271 0-13.537-13.649-24.506-30.331-24.506zm-19.832 23.339c-1.984 0-3.5-2.451-3.5-5.835s1.516-5.835 3.5-5.835c1.983 0 3.499 2.451 3.499 5.835s-1.516 5.835-3.499 5.835zm0-9.336c-.233 0-1.167 1.284-1.167 3.501s.933 3.501 1.167 3.501c.233 0 1.166-1.284 1.166-3.501s-.933-3.501-1.166-3.501zm24.381-19.371c-.233 0-.583-.117-.816-.234-.467-.35-.933-.7-1.517-.933-.583-.234-.933-.934-.583-1.517.233-.584.933-.934 1.517-.584.816.35 1.516.817 2.216 1.284.467.35.467 1.167.117 1.634-.234.233-.584.35-.934.35zm-6.649-1.168c-.583.234-1.05.584-1.517.934-.35.234-.7.234-.933.234-.35 0-.7-.117-.933-.467-.35-.35-.35-1.167.233-1.517.7-.584 1.4-1.05 2.217-1.284.583-.233 1.283 0 1.516.583.233.584 0 1.284-.583 1.517z"/></svg>