<svg xmlns="http://www.w3.org/2000/svg" viewBox="0 0 70.002 70.002"><path d="M43.168 70.002h-43.168v-50.503l12.187-19.499h45.628l12.187 19.499v50.503h-26.834zm-14.001-2.333h11.667v-4.184l-1.166 1.167-4.667-4.667-4.667 4.667-1.167-1.167v4.184zm-2.333-65.336h-13.354l-10.209 16.334h23.563v-16.334zm14 0h-11.667v16.334h11.667v-16.334zm0 18.668h-1.166c0 .644-.523 1.166-1.167 1.166s-1.167-.522-1.167-1.166h-4.666c0 .644-.523 1.166-1.167 1.166s-1.167-.522-1.167-1.166h-1.167v7.683l1.167-1.166.082.081c.164-.445.583-.765 1.085-.765.644 0 1.167.523 1.167 1.167 0 .501-.32.92-.765 1.086l2.013 2.013c.164-.446.583-.766 1.085-.766s.921.32 1.086.764l2.013-2.012c-.446-.165-.766-.584-.766-1.085 0-.644.523-1.167 1.167-1.167.502 0 .921.32 1.085.765l.082-.081 1.166 1.166v-7.683zm15.688-18.668h-13.354v16.334h23.563l-10.209-16.334zm11.147 18.668h-24.501v13.316l-3.5-3.5-4.667 4.667-4.667-4.667-3.5 3.5v-13.316h-24.501v46.668h24.501v-9.817l3.5 3.5 4.667-4.667 4.667 4.667 3.5-3.5v9.817h24.501v-46.668zm-32.668 4.666c-.644 0-1.167-.522-1.167-1.166 0-.645.523-1.167 1.167-1.167s1.167.522 1.167 1.167c0 .644-.523 1.166-1.167 1.166zm3.5-19.834c.644 0 1.167.523 1.167 1.167 0 .645-.523 1.167-1.167 1.167s-1.167-.522-1.167-1.167c0-.644.523-1.167 1.167-1.167zm0 7.001c.644 0 1.167.522 1.167 1.166 0 .645-.523 1.167-1.167 1.167s-1.167-.522-1.167-1.167c0-.644.523-1.166 1.167-1.166zm-3.5-1.167c-.644 0-1.167-.522-1.167-1.167 0-.644.523-1.166 1.167-1.166s1.167.522 1.167 1.166c0 .645-.523 1.167-1.167 1.167zm-3.5 3.5c-.644 0-1.167-.522-1.167-1.167 0-.644.523-1.166 1.167-1.166s1.167.522 1.167 1.166c0 .645-.523 1.167-1.167 1.167zm0-7c-.644 0-1.167-.522-1.167-1.167 0-.644.523-1.167 1.167-1.167s1.167.523 1.167 1.167c0 .645-.523 1.167-1.167 1.167zm4.667-4.667c0 .644-.523 1.167-1.167 1.167s-1.167-.523-1.167-1.167.523-1.167 1.167-1.167 1.167.523 1.167 1.167zm-2.334 14c0-.644.523-1.166 1.167-1.166s1.167.522 1.167 1.166c0 .645-.523 1.167-1.167 1.167s-1.167-.522-1.167-1.167z"/></svg>