<svg xmlns="http://www.w3.org/2000/svg" viewBox="0 0 65.004 56.336"><path d="M62.837 52.003v4.333h-10.834v-4.333h-39.002v4.333h-10.834v-4.333h-2.167v-52.003h65.004v52.003h-2.167zm-8.667 2.167h6.5v-2.167h-6.5v2.167zm-49.836 0h6.5v-2.167h-6.5v2.167zm58.503-43.336h-6.5v2.166h6.5v-2.166zm-4.333 26.001v-21.668h-4.334v-6.5h4.334v-2.158l-51.995-.009-.009 38.994 51.995.008.005-2.166h-4.33v-6.501h4.334zm4.333-21.668h-2.167v21.668h2.167v-21.668zm0 23.835h-6.5v2.167h6.5v-2.167zm0 4.334h-2.167v2.158c0 1.2-.975 2.175-2.175 2.175h-51.986c-1.199 0-2.175-.975-2.175-2.175v-38.985c0-1.201.976-2.176 2.175-2.176h51.986c1.2 0 2.175.975 2.175 2.176v2.158h2.167v-6.501h-60.67v47.67h60.67v-6.5zm-24.918-27.085h15.168v6.5h-15.168v-6.5zm2.167 4.333h10.834v-2.167h-10.834v2.167zm-6.501 6.501h-4.418c-.185 1.281-.689 2.457-1.432 3.449l3.128 3.128c.423.424.423 1.108 0 1.532-.211.211-.489.317-.766.317s-.555-.106-.766-.317l-3.128-3.128c-.992.743-2.169 1.248-3.45 1.432v4.421c0 .599-.486 1.083-1.084 1.083s-1.083-.484-1.083-1.083v-4.421c-1.283-.184-2.46-.689-3.451-1.432l-3.128 3.128c-.211.211-.488.317-.766.317-.277 0-.554-.106-.766-.317-.423-.424-.423-1.108 0-1.532l3.128-3.128c-.743-.991-1.248-2.168-1.432-3.449h-4.42c-.598 0-1.084-.485-1.084-1.084s.486-1.083 1.084-1.083h4.42c.184-1.282.689-2.458 1.431-3.45l-3.128-3.128c-.423-.423-.423-1.108 0-1.531.424-.424 1.109-.424 1.532 0l3.128 3.127c.992-.743 2.169-1.248 3.451-1.432v-4.42c0-.599.485-1.084 1.083-1.084s1.083.485 1.083 1.084v4.42c1.282.184 2.459.689 3.45 1.432l3.128-3.127c.423-.424 1.108-.424 1.532 0 .423.423.423 1.108 0 1.531l-3.128 3.128c.743.992 1.248 2.168 1.432 3.45h4.42c.598 0 1.084.484 1.084 1.083s-.486 1.084-1.084 1.084zm-11.917-6.501c-2.987 0-5.417 2.43-5.417 5.417s2.43 5.417 5.417 5.417 5.417-2.43 5.417-5.417-2.43-5.417-5.417-5.417zm0 6.501c-.598 0-1.083-.485-1.083-1.084 0-.598.485-1.083 1.083-1.083s1.083.485 1.083 1.083c0 .599-.485 1.084-1.083 1.084zm18.418-1.084c.598 0 1.083.484 1.083 1.084v1.083c0 .599-.485 1.083-1.083 1.083s-1.084-.484-1.084-1.083v-1.083c0-.6.486-1.084 1.084-1.084zm0 4.334c.598 0 1.083.484 1.083 1.083v1.084c0 .599-.485 1.083-1.083 1.083s-1.084-.484-1.084-1.083v-1.084c0-.599.486-1.083 1.084-1.083zm0 4.333c.598 0 1.083.485 1.083 1.084v1.083c0 .599-.485 1.084-1.083 1.084s-1.084-.485-1.084-1.084v-1.083c0-.599.486-1.084 1.084-1.084zm5.417-8.667c.598 0 1.083.484 1.083 1.084v1.083c0 .599-.485 1.083-1.083 1.083s-1.084-.484-1.084-1.083v-1.083c0-.6.486-1.084 1.084-1.084zm0 4.334c.598 0 1.083.484 1.083 1.083v1.084c0 .599-.485 1.083-1.083 1.083s-1.084-.484-1.084-1.083v-1.084c0-.599.486-1.083 1.084-1.083zm0 4.333c.598 0 1.083.485 1.083 1.084v1.083c0 .599-.485 1.084-1.083 1.084s-1.084-.485-1.084-1.084v-1.083c0-.599.486-1.084 1.084-1.084zm5.417-8.667c.599 0 1.083.484 1.083 1.084v1.083c0 .599-.484 1.083-1.083 1.083-.598 0-1.084-.484-1.084-1.083v-1.083c0-.6.486-1.084 1.084-1.084zm0 4.334c.599 0 1.083.484 1.083 1.083v1.084c0 .599-.484 1.083-1.083 1.083-.598 0-1.084-.484-1.084-1.083v-1.084c0-.599.486-1.083 1.084-1.083zm0 4.333c.599 0 1.083.485 1.083 1.084v1.083c0 .599-.484 1.084-1.083 1.084-.598 0-1.084-.485-1.084-1.084v-1.083c0-.599.486-1.084 1.084-1.084z"/></svg>