<svg xmlns="http://www.w3.org/2000/svg" viewBox="0 0 89.97 82.238"><path d="M76.359 57.045h-1.671c-.82 0-1.484-.665-1.484-1.485 0-.821.664-1.486 1.484-1.486h1.671c.82 0 1.484.665 1.484 1.486 0 .82-.664 1.485-1.484 1.485zm2.914 9.409c0 .82-.665 1.486-1.485 1.486h-1.671c-.82 0-1.484-.666-1.484-1.486s.664-1.485 1.484-1.485h1.671c.82 0 1.485.665 1.485 1.485zm2.301-5.447c-.821 0-1.485-.665-1.485-1.486 0-.82.664-1.485 1.485-1.485h1.67c.82 0 1.485.665 1.485 1.485 0 .821-.665 1.486-1.485 1.486h-1.67zm8.396 14.1c0 .821-.665 1.486-1.485 1.486h-87c-.82 0-1.485-.665-1.485-1.486 0-.82.665-1.485 1.485-1.485h5.348v-22.497c-.779-1.09-1.188-2.32-1.188-3.587 0-5.12 2.964-7.057 5.346-8.613.948-.619 1.849-1.21 2.572-1.958v-2.601c0-.82.665-1.485 1.485-1.485s1.485.665 1.485 1.485v2.601c.466.481 1.005.898 1.584 1.298v-5.88c0-.82.664-1.485 1.484-1.485h.015l.114-.831c-.852.201-1.729.304-2.625.304-6.304 0-11.432-5.131-11.432-11.437 0-6.307 5.128-11.439 11.432-11.439 2.033 0 3.996.547 5.707 1.534-.028-.201-.043-.405-.043-.613 0-1.936 1.241-3.587 2.969-4.201v-2.731c0-.82.665-1.486 1.485-1.486s1.484.666 1.484 1.486v2.731c1.728.614 2.97 2.265 2.97 4.201 0 1.582-.828 2.972-2.072 3.763l2.332 10.202h.428c.742 0 1.37.548 1.471 1.283l.993 7.234h.015c.82 0 1.485.665 1.485 1.485v5.88c.578-.4 1.118-.816 1.584-1.298v-2.601c0-.82.664-1.485 1.484-1.485s1.485.665 1.485 1.485v2.601c.723.748 1.625 1.339 2.572 1.958 2.382 1.556 5.346 3.493 5.346 8.613 0 1.267-.409 2.497-1.187 3.587v14.353h2.177v-29.309c0-.821.665-1.486 1.485-1.486h.562v-11.809c0-.821.664-1.486 1.485-1.486h.098v-6.037c0-.821.665-1.486 1.485-1.486h.177l3.204-8.13v-3.679c0-.82.665-1.485 1.485-1.485s1.485.665 1.485 1.485v3.68l3.204 8.13h.177c.82 0 1.484.665 1.484 1.485v6.038h.099c.82 0 1.485.665 1.485 1.485v11.81h.561c.82 0 1.484.665 1.484 1.485v10.577h1.122v-1.684c0-.82.665-1.485 1.485-1.485s1.485.665 1.485 1.485v1.684h1.063v-1.684c0-.82.664-1.485 1.484-1.485s1.485.665 1.485 1.485v1.684h1.062v-1.684c0-.82.665-1.485 1.485-1.485s1.485.665 1.485 1.485v1.684h1.062v-1.684c0-.82.665-1.485 1.485-1.485s1.485.665 1.485 1.485v1.684h1.062v-1.684c0-.82.665-1.485 1.485-1.485s1.485.665 1.485 1.485v3.169c0 .821-.665 1.486-1.485 1.486h-18.735v15.761h.494c.82 0 1.485.666 1.485 1.486v6.658h16.756c.82 0 1.485.665 1.485 1.485zm-66.708-1.485h7.918v-15.388h-7.918v15.388zm-13.462 0h10.492v-21.726h-10.492v21.726zm-1.187-26.084c0 .47.119.939.347 1.387h3.002c-1.361-.671-2.491-1.338-3.336-1.883l-.013.496zm8.867-6.126c-.818-.534-1.655-1.081-2.434-1.761-.461.404-.944.759-1.43 1.094 1.035.627 2.841 1.454 5.658 1.919-.531-.426-1.137-.822-1.794-1.252zm-4.352 2.457c-.98-.483-1.681-.964-2.145-1.333-.586.451-1.088.931-1.477 1.518 1.708 1.175 6.141 3.896 11.674 4.771.196-.418.3-.852.3-1.287 0-.617-.053-1.158-.151-1.642-3.197-.239-5.954-.919-8.201-2.027zm3.975-33.401c-4.666 0-8.463 3.799-8.463 8.468 0 4.668 3.797 8.466 8.463 8.466 1.067 0 2.096-.195 3.071-.576l.433-3.16c.101-.736.729-1.284 1.471-1.284h.428l1.802-7.882c-1.536-2.491-4.272-4.032-7.205-4.032zm10.118-3.535c-.819 0-1.485.666-1.485 1.485 0 .82.666 1.486 1.485 1.486s1.485-.666 1.485-1.486c0-.819-.666-1.485-1.485-1.485zm0 8.151l-1.669 7.299h3.338l-1.669-7.299zm3.848 10.27h-7.696l-.177 1.287h8.05l-.177-1.287zm.585 4.258h-8.866l-.176 1.288h9.219l-.177-1.288zm1.704 4.259h-12.274v6.449c1.782 1.436 3.365 3.476 3.365 7.218 0 1.267-.408 2.497-1.187 3.587v4.138h7.918v-4.138c-.779-1.09-1.188-2.32-1.188-3.587 0-3.742 1.584-5.782 3.366-7.218v-6.449zm-.396 13.667c0 .47.119.939.348 1.387h1.919c-.046-.455-.07-.919-.07-1.387 0-2.447.249-4.084.614-5.327-1.685 1.194-2.811 2.45-2.811 5.327zm6.434-6.325c-.698 1.334-1.267 2.693-1.267 6.325 0 .474.03.94.089 1.387h2.356c.059-.447.089-.913.089-1.387 0-3.632-.57-4.991-1.267-6.325zm-5.246 10.683v21.726h2.358v-6.658c0-.821.664-1.486 1.484-1.486h6.65v-13.582h-10.492zm8.869-9.685c.364 1.243.613 2.88.613 5.327 0 .468-.024.932-.07 1.387h1.92c.228-.448.347-.917.347-1.387 0-2.877-1.126-4.133-2.81-5.327zm-3.542 26.238v5.173h18.329v-5.173h-18.329zm20.293-58.382l-1.497 3.798h2.994l-1.497-3.798zm3.381 6.77h-6.762v4.551h1.896v-.891c0-.82.665-1.485 1.485-1.485s1.485.665 1.485 1.485v.891h1.896v-4.551zm1.584 7.522h-9.93v10.324h9.93v-10.324zm2.045 13.295h-14.022v4.734h1.089v-.892c0-.82.665-1.485 1.485-1.485s1.484.665 1.484 1.485v.892h1.386v-.892c0-.82.665-1.485 1.485-1.485s1.484.665 1.484 1.485v.892h1.386v-.892c0-.82.665-1.485 1.485-1.485s1.485.665 1.485 1.485v.892h1.253v-4.734zm0 7.705h-14.022v14.261h14.022v-14.261zm0 17.233h-14.022v2.886h14.022v-2.886zm1.979 5.857h-7.984v5.173h7.984v-5.173zm-8.874-43.293c2.455 0 4.454 1.999 4.454 4.456 0 2.458-1.999 4.457-4.454 4.457-2.456 0-4.455-1.999-4.455-4.457 0-2.457 1.999-4.456 4.455-4.456zm0 5.942c.818 0 1.484-.666 1.484-1.486 0-.819-.666-1.485-1.484-1.485-.819 0-1.485.666-1.485 1.485 0 .82.666 1.486 1.485 1.486zm-20.49 28.522c-.819 0-1.484-.665-1.484-1.485v-2.773c0-.821.665-1.486 1.484-1.486.821 0 1.485.665 1.485 1.486v2.773c0 .82-.665 1.485-1.485 1.485zm-12.174-8.715c-.82 0-1.485-.665-1.485-1.485v-2.773c0-.821.665-1.486 1.485-1.486s1.485.665 1.485 1.486v2.773c0 .82-.665 1.485-1.485 1.485zm0-8.913c-.82 0-1.485-.665-1.485-1.486v-2.773c0-.82.665-1.485 1.485-1.485s1.485.665 1.485 1.485v2.773c0 .821-.665 1.486-1.485 1.486zm-12.175 17.628c-.819 0-1.484-.665-1.484-1.485v-2.773c0-.821.665-1.486 1.484-1.486.82 0 1.485.665 1.485 1.486v2.773c0 .82-.665 1.485-1.485 1.485zm-13.561 19.647h87c.82 0 1.485.665 1.485 1.485s-.665 1.486-1.485 1.486h-87c-.82 0-1.485-.666-1.485-1.486s.665-1.485 1.485-1.485z"/></svg>