<svg xmlns="http://www.w3.org/2000/svg" viewBox="0 0 29.247 36"><path d="M24.69 22.484c2.137-2.388 3.446-5.53 3.446-8.984 0-7.456-6.049-13.5-13.512-13.5-7.464 0-13.514 6.044-13.514 13.5 0 3.454 1.31 6.596 3.447 8.984-2.139 3.725-4.557 7.932-4.557 7.932l5.929.861 3.695 4.723 5-8.703 4.999 8.703 3.695-4.723 5.929-.861-4.557-7.932zm-15.615 10.13l-1.786-3.77-4.038.268s1.389-2.507 2.85-5.14c1.755 1.427 3.879 2.413 6.204 2.815l-3.23 5.827zm-5.713-19.114c0-6.213 5.043-11.25 11.262-11.25s11.26 5.037 11.26 11.25-5.041 11.25-11.26 11.25-11.262-5.037-11.262-11.25zm18.595 15.344l-1.785 3.77-3.23-5.827c2.324-.402 4.448-1.388 6.205-2.815 1.461 2.633 2.85 5.14 2.85 5.14l-4.04-.268zm-7.333-23.219c-4.354 0-7.883 3.526-7.883 7.875s3.529 7.874 7.883 7.874c4.353 0 7.882-3.525 7.882-7.874s-3.529-7.875-7.882-7.875zm0 13.5c-3.11 0-5.631-2.518-5.631-5.625s2.521-5.625 5.631-5.625c3.109 0 5.63 2.518 5.63 5.625s-2.521 5.625-5.63 5.625z"/></svg>