<svg xmlns="http://www.w3.org/2000/svg" viewBox="0 0 79.984 79.89"><path d="M79.549 9.873l-3.472 3.04.932.931c.498.498.498 1.305 0 1.803-.249.249-.576.373-.903.373-.326 0-.653-.124-.902-.373l-1.051-1.05-3.6 3.15c-.181.159-.403.263-.641.3l-2.82.449-17.147 18.043-11.377 42.406c-.118.44-.462.784-.902.902-.109.029-.22.043-.33.043-.335 0-.661-.131-.903-.373l-36.059-36.017c-.322-.322-.448-.791-.33-1.231s.462-.784.902-.902l42.457-11.362 18.065-17.127.449-2.817c.038-.238.142-.46.3-.64l1.6-1.823-1.052-1.051c-.498-.498-.498-1.305 0-1.802.499-.498 1.307-.498 1.805 0l.933.931 1.423-1.622-1.052-1.051c-.498-.497-.498-1.305 0-1.803.499-.497 1.307-.497 1.805 0l.933.932 1.488-1.697c.233-.265.565-.422.918-.434.352-.011.695.123.945.373l7.648 7.639c.249.249.384.591.373.944-.012.352-.169.684-.435.916zm-16.912 5.412l-17.708 16.788-.009.009-6.226 5.903c-.511.485-1.319.463-1.804-.047-.486-.511-.465-1.318.047-1.802l2.587-2.453-35.782 9.576 32.933 32.893 9.588-35.739-2.456 2.585c-.251.264-.588.397-.926.397-.316 0-.632-.117-.879-.351-.511-.484-.532-1.291-.047-1.802l5.915-6.224 16.812-17.69-2.045-2.043zm8.485-12.145l-6.742 7.685-.357 2.238 2.883 2.88 2.242-.356 7.694-6.734-5.72-5.713zm-35.63 45.125c-1.023 0-1.984-.398-2.708-1.12-1.493-1.492-1.493-3.918 0-5.409.723-.722 1.685-1.12 2.708-1.12s1.984.398 2.707 1.12c1.493 1.491 1.493 3.917 0 5.409-.723.722-1.684 1.12-2.707 1.12zm.902-4.726c-.241-.241-.561-.373-.902-.373s-.662.132-.903.373c-.497.497-.497 1.306 0 1.803.241.241.562.373.903.373s.661-.132.902-.373c.498-.497.498-1.306 0-1.803zm-3.519 15.776c-.249.249-.576.373-.903.373-.326 0-.653-.124-.902-.373l-10.47-10.458c-.499-.497-.499-1.305 0-1.803.498-.497 1.306-.497 1.805 0l10.47 10.458c.498.498.498 1.305 0 1.803zm-11.524-5.68l4.935 4.929c.498.498.498 1.305 0 1.803-.249.249-.576.373-.902.373-.327 0-.654-.124-.903-.373l-4.935-4.929c-.498-.498-.498-1.305 0-1.803.499-.498 1.307-.498 1.805 0z"/></svg>