<svg xmlns="http://www.w3.org/2000/svg" viewBox="0 0 60.006 59.891"><path d="M7.153 59.891c-3.944 0-7.153-3.215-7.153-7.166v-38.928c0-4.42 3.589-8.017 8.001-8.017h16.761l5.437-5.447c.443-.444 1.166-.444 1.609 0l2.046 2.05 2.047-2.05c.443-.444 1.166-.444 1.609 0l5.436 5.447h17.06v54.111h-52.853zm.848-52.107c-3.31 0-6.001 2.697-6.001 6.013s2.691 6.012 6.001 6.012h2.76l9.307-9.325c.098-.305.33-.536.633-.634l2.061-2.066h-14.761zm23.002-5.423l-3.412 3.419-14.002 14.029h2.875l15.976-16.008-1.437-1.44zm9.115 3.419l-3.412-3.419-1.437 1.44-15.977 16.008h5.391l11.258-11.28c.433-.422 1.096-.423 1.519-.011l11.268 11.291h5.391l-14.001-14.029zm-12.606 14.029h18.389l-9.195-9.212-9.194 9.212zm30.494-12.025h-13.059l2.01 2.015.048-.011h2c.553 0 1 .448 1 1.003 0 .554-.447 1.002-1 1.002h-.058l8.001 8.016h1.058v-12.025zm0 26.054h-11.001c-2.758 0-5.001 2.247-5.001 5.01s2.243 5.011 5.001 5.011h11.001v-10.021zm0 22.045h-1c-.553 0-1-.448-1-1.002s.447-1.002 1-1.002h1v-8.016h-11.001c-3.86 0-7.001-3.148-7.001-7.015s3.141-7.014 7.001-7.014h11.001v-6.013h-1c-.553 0-1-.447-1-1.002 0-.554.447-1.002 1-1.002h1v-2.001h-50.007c-.287 0-.571-.017-.851-.047l-.275-.042c-.185-.026-.369-.052-.55-.091l-.318-.082-.478-.135-.324-.119-.435-.174-.319-.155-.403-.213-.306-.186-.372-.25-.287-.215-.343-.286-.265-.241-.275-.279.043.197c.104.352-.008.706-.241.956v27.413c0 .576.081 1.146.241 1.693.104.352-.008.706-.241.956v2.209c0 2.846 2.312 5.162 5.153 5.162h50.853v-2.004zm-49.005-32.066h2c.553 0 1 .448 1 1.002 0 .555-.447 1.002-1 1.002h-2c-.553 0-1-.447-1-1.002 0-.554.447-1.002 1-1.002zm0 30.062h2c.553 0 1 .448 1 1.002s-.447 1.002-1 1.002h-2c-.553 0-1-.448-1-1.002s.447-1.002 1-1.002zm6-30.062h2.001c.553 0 1 .448 1 1.002 0 .555-.447 1.002-1 1.002h-2.001c-.553 0-1-.447-1-1.002 0-.554.447-1.002 1-1.002zm0 30.062h2.001c.553 0 1 .448 1 1.002s-.447 1.002-1 1.002h-2.001c-.553 0-1-.448-1-1.002s.447-1.002 1-1.002zm6.001-30.062h2c.553 0 1 .448 1 1.002 0 .555-.447 1.002-1 1.002h-2c-.553 0-1-.447-1-1.002 0-.554.447-1.002 1-1.002zm0 30.062h2c.553 0 1 .448 1 1.002s-.447 1.002-1 1.002h-2c-.553 0-1-.448-1-1.002s.447-1.002 1-1.002zm6.001-30.062h2c.553 0 1 .448 1 1.002 0 .555-.447 1.002-1 1.002h-2c-.553 0-1-.447-1-1.002 0-.554.447-1.002 1-1.002zm0 30.062h2c.553 0 1 .448 1 1.002s-.447 1.002-1 1.002h-2c-.553 0-1-.448-1-1.002s.447-1.002 1-1.002zm6-30.062h2.001c.553 0 1 .448 1 1.002 0 .555-.447 1.002-1 1.002h-2.001c-.553 0-1-.447-1-1.002 0-.554.447-1.002 1-1.002zm0 30.062h2.001c.553 0 1 .448 1 1.002s-.447 1.002-1 1.002h-2.001c-.553 0-1-.448-1-1.002s.447-1.002 1-1.002zm6.001-30.062h2c.553 0 1 .448 1 1.002 0 .555-.447 1.002-1 1.002h-2c-.553 0-1-.447-1-1.002 0-.554.447-1.002 1-1.002zm0 30.062h2c.553 0 1 .448 1 1.002s-.447 1.002-1 1.002h-2c-.553 0-1-.448-1-1.002s.447-1.002 1-1.002zm6.001 0h2c.553 0 1 .448 1 1.002s-.447 1.002-1 1.002h-2c-.554 0-1.001-.448-1.001-1.002s.447-1.002 1.001-1.002zm6 0h2c.553 0 1.001.448 1.001 1.002s-.448 1.002-1.001 1.002h-2c-.553 0-1-.448-1-1.002s.447-1.002 1-1.002zm-6-30.062h2c.553 0 1 .448 1 1.002 0 .555-.447 1.002-1 1.002h-2c-.554 0-1.001-.447-1.001-1.002 0-.554.447-1.002 1.001-1.002zm6 0h2c.553 0 1.001.448 1.001 1.002 0 .555-.448 1.002-1.001 1.002h-2c-.553 0-1-.447-1-1.002 0-.554.447-1.002 1-1.002zm-45.914 31.434c-.139 0-.28-.029-.415-.091-.693-.318-1.337-.733-1.914-1.234-.417-.363-.462-.996-.101-1.414.363-.418.994-.463 1.411-.101.433.377.916.688 1.437.927.501.229.722.825.493 1.328-.169.367-.531.585-.911.585zm0-30.062c-.139 0-.28-.029-.415-.091-.693-.318-1.337-.733-1.914-1.234-.417-.362-.462-.996-.101-1.413.363-.418.994-.463 1.411-.102.433.377.916.689 1.437.927.501.23.722.825.493 1.328-.169.368-.531.585-.911.585zm38.913 13.659c0-2.21 1.795-4.008 4.001-4.008s4 1.798 4 4.008c0 2.211-1.794 4.008-4 4.008s-4.001-1.797-4.001-4.008zm4.001 2.004c1.103 0 2-.899 2-2.004s-.897-2.004-2-2.004-2 .899-2 2.004.897 2.004 2 2.004zm7.001-29.059h-2.001c-.553 0-1-.448-1-1.002 0-.555.447-1.003 1-1.003h2.001c.553 0 1 .448 1 1.003 0 .554-.447 1.002-1 1.002zm-38.004 0h-2.001c-.553 0-1-.448-1-1.002 0-.555.447-1.003 1-1.003h2.001c.553 0 1 .448 1 1.003 0 .554-.447 1.002-1 1.002zm-6.001 0h-2c-.553 0-1-.448-1-1.002 0-.555.447-1.003 1-1.003h2c.553 0 1 .448 1 1.003 0 .554-.447 1.002-1 1.002zm-5.492.541c-.522.238-1.005.55-1.438.927-.189.164-.423.244-.655.244-.279 0-.558-.117-.756-.346-.361-.417-.316-1.051.101-1.413.577-.502 1.222-.917 1.915-1.234.503-.232 1.096-.009 1.326.494.23.504.008 1.098-.493 1.328z"/></svg>